<svg id="Layer_1" height="512" viewBox="0 0 512 512" width="512" xmlns="http://www.w3.org/2000/svg" data-name="Layer 1"><path d="m511.735 392.182a49.151 49.151 0 0 0 -25.52-34.476c-10.86-6.422-23.712-11.726-36.145-16.857-37.292-15.391-59.989-26.738-55.944-51.768 21.256-19.43 29.935-53.83 23.833-95.006a55.58 55.58 0 0 0 -22.8-37.834 64.016 64.016 0 0 0 -17.85-8.907c-.075-.228-.155-.455-.251-.68a196.251 196.251 0 0 0 -180.658-119.223c-108.3 0-196.4 88.105-196.4 196.4s88.1 196.4 196.4 196.4c.659 0 1.324-.011 1.987-.018-.023 15.77-.043 36.314-.061 56.349a8 8 0 0 0 8 8.007h297.674a8 8 0 0 0 8-8.007c-.033-37.054-.074-75.884-.123-82.937a8.038 8.038 0 0 0 -.142-1.443zm-315.335 12.049c-99.473 0-180.4-80.931-180.4-180.4s80.927-180.4 180.4-180.4a180.249 180.249 0 0 1 161.806 100.53c-1.019-.042-2.041-.068-3.066-.068a73.678 73.678 0 0 0 -13.1 1.176 165.494 165.494 0 0 0 -145.64-86.784c-91.282 0-165.546 74.264-165.546 165.546s74.264 165.545 165.546 165.545c.938 0 1.878-.012 2.818-.028q-.352 1.4-.627 2.834a8.038 8.038 0 0 0 -.142 1.443c-.012 1.747-.023 5.45-.034 10.588-.673.007-1.347.018-2.015.018zm119.684-115.84c2.57 14.305-3.484 24.187-15.928 32.844a7.988 7.988 0 0 0 -2.2-7.163l-8.183-8.182a8 8 0 1 0 -11.313 11.31l8.183 8.182a7.957 7.957 0 0 0 3.322 1.994c-8.317 4.45-18.323 8.771-29.694 13.463-12.437 5.133-25.3 10.439-36.16 16.862a49.309 49.309 0 0 0 -17.422 15.316c-3.414.231-6.864.355-10.289.355-82.46 0-149.546-67.085-149.546-149.545s67.086-149.542 149.546-149.542a149.488 149.488 0 0 1 129.965 75.548 62.157 62.157 0 0 0 -11.242 6.408 55.579 55.579 0 0 0 -22.8 37.834c-6.009 40.525 2.644 74.686 23.761 94.316zm-101.751 180.178c.031-33.262.068-66.008.111-74.07a33.236 33.236 0 0 1 17.256-22.709q.2-.1.389-.216c9.908-5.883 22.3-11 34.281-15.941 17.4-7.181 35.4-14.607 48.122-25.157 15.576-12.917 21.181-29.119 16.658-48.156a7.991 7.991 0 0 0 -2.595-4.24c-18.347-15.629-25.787-45.392-20.412-81.66 3.738-25.233 26.294-36.527 46.993-36.527s43.254 11.294 46.992 36.527c5.472 36.926-1.984 66.92-20.453 82.293a7.993 7.993 0 0 0 -2.691 4.406c-4.195 18.792 1.565 34.8 17.118 47.575 12.707 10.436 30.578 17.812 47.86 24.945 11.977 4.943 24.363 10.055 34.267 15.935.127.075.257.148.389.216a33.236 33.236 0 0 1 17.26 22.709c.043 8.062.08 40.808.111 74.07zm-25.933-368.787v-11.571a8 8 0 1 1 16 0v11.571a8 8 0 1 1 -16 0zm109.555 33.808-8.183 8.182a8 8 0 1 1 -11.312-11.314l8.183-8.182a8 8 0 1 1 11.312 11.314zm-93.555 214.29v11.571a8 8 0 0 1 -16 0v-11.571a8 8 0 0 1 16 0zm-90.059-41.99a8 8 0 0 1 0 11.314l-8.182 8.182a8 8 0 0 1 -11.314-11.314l8.181-8.182a8 8 0 0 1 11.315 0zm-33.99-82.059a8 8 0 0 1 -8 8h-11.571a8 8 0 0 1 0-16h11.571a8 8 0 0 1 8 8zm33.991-93.373a8 8 0 0 1 -11.315 11.314l-8.181-8.182a8 8 0 0 1 11.314-11.314zm149.913 24.489-58.584 50.365a20.508 20.508 0 0 0 -18.541 0l-37.5-32.243a8 8 0 0 0 -10.43 12.131l37.493 32.232a20.734 20.734 0 1 0 39.425 0l58.572-50.354a8 8 0 0 0 -10.43-12.133zm-67.855 73.617a4.734 4.734 0 1 1 4.734-4.733 4.738 4.738 0 0 1 -4.734 4.733z" fill="rgb(255,255,255)"/></svg>