<svg id="Layer_1" enable-background="new 0 0 24 24" viewBox="0 0 24 24" xmlns="http://www.w3.org/2000/svg" xmlns:xlink="http://www.w3.org/1999/xlink"><linearGradient id="XMLID_40_" gradientUnits="userSpaceOnUse" x1="3.541" x2="19.942" y1="8.055" y2="15.703"><stop offset="0" stop-color="#fff" stop-opacity=".2"/><stop offset="1" stop-color="#fff" stop-opacity="0"/></linearGradient><g><path id="XMLID_1465_" d="m0 16.9990406h2.0869565s2.4130383-.0347195 4.173913-5.5550232l2.0869565-2.2220087c1.732338 6.7245665 2.4130383 7.7770319 3.652174 7.7770319 1.2391253 0 3.4248152.0009594 4.6965542.0009594s2.5751858-.9383698 7.3034458-10c0 0-1.858696 0-4.173914 0s-3.22826 4.2704229-4.173912 7.7770309c-1.6304407-6.2494001-1.956522-7.7770309-4.173913-7.7770309s-2.576087 0-4.6956525 0-4.467391 1.7012253-6.7826085 9.9990406z" fill="#0a99d6"/><path d="m6.7825928 7.25h4.6956787s2.543457 1.5275879 4.1738892 7.7770386c.9456787-3.5066529 1.8587036-7.7770386 4.1739501-7.7770386h4.0419922c.0453491-.0866699.0858765-.1618042.131897-.25 0 0-1.8587036 0-4.1738892 0-2.3152466 0-3.2282715 4.2703857-4.1739502 7.7770386-1.6304321-6.2494507-1.9564819-7.7770386-4.1738891-7.7770386s-2.5761109 0-4.6956787 0-4.4673462 1.7012329-6.7825928 9.9990234c0 0 1.0784258-3.2290268 1.5803753-4.4329605 1.7901188-4.2936258 3.5643171-5.3160629 5.2022175-5.3160629z" fill="#fff" opacity=".2"/><path d="m16.6965332 16.75c-1.2717285 0-3.4573975-.0009766-4.6965332-.0009766s-1.9198608-1.0524902-3.6521606-7.7770386l-2.0869751 2.2220459c-1.7608643 5.5202637-2.5651856 5.5549927-4.1738892 5.5549927-1.2763672 0-1.8346558 0-2.0135498 0-.0244751.0861817-.0489502.1623536-.0734253.25h2.0869751s2.4130249-.034729 4.1738892-5.5549926l2.0869751-2.2220459c1.7322998 6.7245483 2.4130249 7.7770385 3.6521606 7.7770385s3.4248047.0009766 4.6965332.0009766c1.2717896 0 2.5751953-.9384155 7.3034668-10 0 0-.83988 1.3426189-1.1644611 1.9436827-3.7882805 7.0151968-4.9789963 7.8063173-6.1390057 7.8063173z" fill="#010101" opacity=".1"/><path id="XMLID_1022_" d="m0 16.9990406h2.0869565s2.4130383-.0347195 4.173913-5.5550232l2.0869565-2.2220087c1.732338 6.7245665 2.4130383 7.7770319 3.652174 7.7770319 1.2391253 0 3.4248152.0009594 4.6965542.0009594s2.5751858-.9383698 7.3034458-10c0 0-1.858696 0-4.173914 0s-3.22826 4.2704229-4.173912 7.7770309c-1.6304407-6.2494001-1.956522-7.7770309-4.173913-7.7770309s-2.576087 0-4.6956525 0-4.467391 1.7012253-6.7826085 9.9990406z" fill="url(#XMLID_40_)"/></g><g/><g/><g/><g/><g/><g/><g/><g/><g/><g/><g/><g/><g/><g/><g/></svg>