<?xml version="1.0" encoding="iso-8859-1"?>
<!-- Generator: Adobe Illustrator 19.0.0, SVG Export Plug-In . SVG Version: 6.00 Build 0)  -->
<svg version="1.1" id="Capa_1" xmlns="http://www.w3.org/2000/svg" xmlns:xlink="http://www.w3.org/1999/xlink" x="0px" y="0px"
	 viewBox="0 0 511.999 511.999" style="enable-background:new 0 0 511.999 511.999;" xml:space="preserve">
<path style="fill:#50555A;" d="M91.766,469.759c-6.03,0-10.918-4.889-10.918-10.918v-77.679c0-6.03,4.889-10.918,10.918-10.918
	s10.918,4.889,10.918,10.918v77.679C102.685,464.871,97.796,469.759,91.766,469.759z"/>
<path style="fill:#80868C;" d="M130.469,488.597l-16.82-16.82H68.455l-16.819,16.82c-4.264,4.264-11.178,4.264-15.441,0
	c-4.264-4.264-4.264-11.177,0-15.441l20.017-20.018c2.048-2.048,4.825-3.198,7.721-3.198h54.239c2.896,0,5.673,1.15,7.72,3.198
	l20.018,20.018c4.264,4.264,4.264,11.177,0,15.441C141.646,492.86,134.732,492.861,130.469,488.597z"/>
<path style="fill:#5F6E9B;" d="M147.339,490.288c-10.987-4.347-16.369-16.779-12.022-27.767l36.949-93.181h-65.703
	c-0.021,0-0.043,0-0.064,0c-11.787,0-21.359-9.538-21.394-21.332c-0.035-11.816,9.516-21.423,21.332-21.458l97.277-0.284
	c0.021,0,0.042,0,0.063,0c7.073,0,13.69,3.496,17.676,9.341c3.998,5.863,4.829,13.327,2.217,19.925l-48.567,122.732
	C170.757,489.252,158.327,494.636,147.339,490.288z"/>
<circle style="fill:#FFB69E;" cx="135.764" cy="156.342" r="39.351"/>
<path style="fill:#414B82;" d="M261.195,490.281c-10.986-4.351-16.364-16.783-12.014-27.77l48.606-122.732
	c3.232-8.16,11.119-13.517,19.891-13.517c0.022,0,0.041,0,0.063,0l97.277,0.284c11.815,0.034,21.366,9.641,21.332,21.458
	c-0.035,11.794-9.607,21.332-21.393,21.332c-0.022,0-0.042,0-0.064,0l-82.693-0.242l-43.236,109.173
	C284.613,489.254,272.179,494.631,261.195,490.281z"/>
<path style="fill:#64AFFF;" d="M153.878,369.342H99.107c-19.076,0.141-30.037-14.054-30.078-28.993l-0.237-86.559
	c-0.067-24.654,20-44.713,44.734-44.536l12.76,0.091c7.963,0.057,15.573,3.292,21.139,8.987c5.566,5.695,6.58,13.378,6.453,21.339
	V369.342z"/>
<path style="fill:#FF3C3C;" d="M145.855,398.877H42.546c-7.053,0-13.121-4.991-14.481-11.912L0.28,245.61
	c-1.571-7.998,3.637-15.756,11.635-17.328c7.999-1.572,15.756,3.637,17.328,11.635L54.687,369.36h91.169
	c8.151,0,14.759,6.608,14.759,14.759C160.614,392.27,154.006,398.877,145.855,398.877z"/>
<path style="fill:#50555A;" d="M420.233,469.759c6.03,0,10.918-4.889,10.918-10.918v-77.679c0-6.03-4.889-10.918-10.918-10.918
	c-6.03,0-10.918,4.889-10.918,10.918v77.679C409.315,464.871,414.203,469.759,420.233,469.759z"/>
<path style="fill:#80868C;" d="M381.531,488.597l16.82-16.82h45.194l16.819,16.82c4.264,4.264,11.178,4.264,15.441,0
	c4.264-4.264,4.264-11.177,0-15.441l-20.017-20.018c-2.048-2.048-4.825-3.198-7.721-3.198h-54.239c-2.896,0-5.673,1.15-7.72,3.198
	l-20.018,20.018c-4.264,4.264-4.264,11.177,0,15.441C370.354,492.86,377.268,492.861,381.531,488.597z"/>
<path style="fill:#5F6E9B;" d="M356.796,491.795c2.619,0,5.282-0.484,7.866-1.506c10.987-4.347,16.369-16.779,12.022-27.767
	l-36.949-93.181h65.703c0.021,0,0.043,0,0.064,0c11.787,0,21.359-9.538,21.393-21.332c0.035-11.816-9.516-21.423-21.332-21.458
	l-97.277-0.284c-0.021,0-0.042,0-0.063,0c-7.073,0-13.69,3.496-17.676,9.341c-3.998,5.863-4.829,13.327-2.217,19.925l48.567,122.732
	C340.221,486.67,348.276,491.795,356.796,491.795z"/>
<path style="fill:#FFDC64;" d="M358.122,369.342h54.771c7.942,0.059,15.581-2.268,21.226-7.856
	c5.645-5.588,8.83-13.194,8.852-21.137l0.237-86.559c0.067-24.654-20-44.713-44.734-44.536l-12.76,0.091
	c-7.963,0.057-15.573,3.292-21.139,8.987c-5.566,5.695-6.58,13.378-6.453,21.339L358.122,369.342L358.122,369.342z"/>
<path style="fill:#FF3C3C;" d="M366.144,398.877h103.308c7.053,0,13.121-4.991,14.481-11.912l27.786-141.355
	c1.571-7.998-3.637-15.756-11.635-17.328c-7.999-1.572-15.756,3.637-17.328,11.635l-25.443,129.443h-91.169
	c-8.151,0-14.759,6.608-14.759,14.759C351.386,392.27,357.993,398.877,366.144,398.877z"/>
<circle style="fill:#FFB69E;" cx="385.691" cy="156.342" r="39.351"/>
<path style="fill:#823214;" d="M248.708,490.563c-6.03,0-10.918-4.889-10.918-10.918V341.527c0-6.03,4.889-10.918,10.918-10.918
	c6.03,0,10.918,4.889,10.918,10.918v138.118C259.627,485.675,254.738,490.563,248.708,490.563z"/>
<path style="fill:#C8A06E;" d="M310.671,348.624H186.747c-9.046,0-16.377-7.333-16.377-16.377c0-9.045,7.333-16.377,16.377-16.377
	h123.923c9.046,0,16.377,7.333,16.377,16.377C327.048,341.292,319.716,348.624,310.671,348.624z"/>
<path style="fill:#FFB69E;" d="M359.91,306.153l-65.215-7.309c-9.786-1.097-16.83-9.919-15.732-19.704
	c1.097-9.786,9.928-16.829,19.704-15.732l54.775,6.139l32.681-46.028c5.702-8.029,16.831-9.916,24.859-4.215
	s9.916,16.831,4.216,24.859l-38.764,54.594C372.696,304.02,366.384,306.877,359.91,306.153z"/>
<path style="fill:#FFC305;" d="M410.981,219.305c-8.029-5.701-19.158-3.814-24.859,4.215l-23.614,33.257l30.13,19.158l22.559-31.771
	C420.897,236.134,419.01,225.005,410.981,219.305z"/>
<path style="fill:#FFB69E;" d="M244.959,225.215c-5.786-7.969-16.935-9.736-24.902-3.95l-48.697,35.363l-48.204-35.589
	c-7.921-5.849-19.084-4.169-24.934,3.754c-5.849,7.921-4.168,19.085,3.754,24.934l58.545,43.222
	c6.293,4.758,15.051,4.813,21.408,0.074l59.082-42.904C248.976,244.332,250.744,233.183,244.959,225.215z"/>
<path style="fill:#4699F2;" d="M151.871,242.24l-28.717-21.201c-7.921-5.849-19.084-4.169-24.934,3.754
	c-5.849,7.921-4.168,19.085,3.754,24.934l30.066,22.198L151.871,242.24z"/>
<path style="fill:#A5D7E8;" d="M232.806,20.204c-35.969,0-65.127,18.439-65.127,41.185c0,6.538,2.42,12.718,6.708,18.208v18.033
	h27.459c9.209,3.152,19.754,4.944,30.961,4.944c35.969,0,65.128-18.439,65.128-41.185C297.935,38.643,268.775,20.204,232.806,20.204
	z"/>
<path style="fill:#BEEBFA;" d="M273.154,79.67c34.371,0,62.235,17.62,62.235,39.356c0,6.248-2.313,12.152-6.41,17.4v17.232H302.74
	c-8.8,3.013-18.876,4.724-29.586,4.724c-34.371,0-62.235-17.62-62.235-39.355C210.919,97.29,238.783,79.67,273.154,79.67z"/>
<path style="fill:#A56941;" d="M293.639,491.795h-89.862c-8.151,0-14.759-6.608-14.759-14.759c0-8.151,6.608-14.759,14.759-14.759
	h89.862c8.151,0,14.759,6.608,14.759,14.759C308.398,485.188,301.79,491.795,293.639,491.795z"/>
<g>
</g>
<g>
</g>
<g>
</g>
<g>
</g>
<g>
</g>
<g>
</g>
<g>
</g>
<g>
</g>
<g>
</g>
<g>
</g>
<g>
</g>
<g>
</g>
<g>
</g>
<g>
</g>
<g>
</g>
</svg>
