<svg id="Layer_1" enable-background="new 0 0 512 512" viewBox="0 0 512 512" xmlns="http://www.w3.org/2000/svg"><g><g clip-rule="evenodd" fill-rule="evenodd"><path d="m256.01 184.74c50.85 0 92.35-41.5 92.35-92.38s-41.5-92.36-92.35-92.36c-50.88 0-92.38 41.47-92.38 92.35s41.5 92.39 92.38 92.39z" fill="#ffd400"/><path d="m256.01 324.03c28.06 0 51-22.9 51-51 0-28.06-22.93-51-51-51-28.09 0-51 22.93-51 51 0 28.1 22.91 51 51 51z" fill="#0593fc"/><path d="m184.35 501.54v-73.64c0-1.96-.45-3.6-1.42-5.27l-73.9-126.54c-8.67-14.85-3.63-34.07 11.23-42.75 14.85-8.67 34.1-3.63 42.77 11.23l50.12 85.83c2.41 4.14 7.14 6.07 11.79 4.82 21.63-5.87 40.48-5.87 62.14 0 4.62 1.25 9.35-.68 11.76-4.82l50.15-85.83c8.67-14.85 27.89-19.9 42.75-11.23 14.85 8.67 19.9 27.89 11.25 42.75l-73.9 126.54c-.99 1.67-1.45 3.32-1.45 5.27v73.64c0 5.75-4.68 10.46-10.46 10.46h-122.37c-5.76 0-10.46-4.71-10.46-10.46z" fill="#0593fc"/><path d="m261.28 44.65 8.87 27.52c.77 2.32 2.83 3.83 5.3 3.83l28.88-.06c2.44 0 4.54 1.5 5.27 3.83.77 2.32-.03 4.79-2.01 6.21l-23.41 16.95c-1.98 1.45-2.78 3.88-2.01 6.21l8.99 27.47c.77 2.32-.03 4.79-2.01 6.21-1.98 1.45-4.56 1.45-6.52 0l-23.36-17.04c-1.98-1.45-4.56-1.45-6.55 0l-23.33 17.04c-1.98 1.45-4.56 1.45-6.55 0-1.96-1.42-2.75-3.88-1.98-6.21l8.96-27.47c.77-2.32-.03-4.76-2.01-6.21l-23.41-16.95c-1.98-1.42-2.78-3.88-2.01-6.21.77-2.32 2.83-3.83 5.27-3.83l28.9.06c2.44 0 4.54-1.5 5.27-3.83l8.9-27.52c.74-2.32 2.81-3.83 5.27-3.83 2.45 0 4.52 1.5 5.28 3.83z" fill="#fff"/></g><path d="m476.91 508.03v-134.65c0-1.81 1.47-3.26 3.26-3.26h26.11c1.36 0 2.49-.79 3-2.01.54-1.25.26-2.61-.71-3.57l-51.11-51.11c-1.28-1.28-3.35-1.28-4.62 0l-51.11 51.11c-.96.96-1.22 2.32-.71 3.57.51 1.22 1.67 2.01 3 2.01h26.11c1.79 0 3.26 1.45 3.26 3.26v134.65c0 2.18 1.79 3.97 3.97 3.97h35.57c2.2 0 3.98-1.79 3.98-3.97z" fill="#70da40"/><path d="m78.59 508.03v-134.65c0-1.81 1.47-3.26 3.26-3.26h26.11c1.36 0 2.49-.79 3.03-2.01.51-1.25.23-2.61-.71-3.57l-51.14-51.11c-1.28-1.28-3.34-1.28-4.62 0l-51.11 51.11c-.96.96-1.22 2.32-.71 3.57.51 1.22 1.67 2.01 3 2.01h26.11c1.81 0 3.26 1.45 3.26 3.26v134.65c0 2.18 1.79 3.97 3.97 3.97h35.57c2.19 0 3.98-1.79 3.98-3.97z" fill="#70da40"/><path clip-rule="evenodd" d="m256.01 222.04c2.27 0 4.51.17 6.69.45-24.97 3.29-44.28 24.66-44.28 50.54 0 25.91 19.3 47.28 44.28 50.57-2.18.28-4.42.42-6.69.42-28.18 0-51-22.82-51-51 0-28.13 22.82-50.98 51-50.98z" fill="#0584e3" fill-rule="evenodd"/><path clip-rule="evenodd" d="m184.35 501.54v-73.64c0-1.96-.45-3.6-1.42-5.27l-73.9-126.54c-8.67-14.85-3.63-34.07 11.23-42.75 7-4.11 15-5.13 22.39-3.52-3.06.68-6.09 1.84-8.99 3.52-14.83 8.67-19.9 27.89-11.23 42.75l73.9 126.54c.96 1.67 1.42 3.32 1.42 5.27v73.64c0 5.75 4.71 10.46 10.49 10.46h-13.44c-5.75 0-10.45-4.71-10.45-10.46zm111.12-147.6c1.36-.88 2.52-2.07 3.37-3.54l50.15-85.83c7-11.99 20.86-17.57 33.76-14.74-8.25 1.79-15.79 6.89-20.35 14.74l-50.12 85.83c-2.44 4.14-7.14 6.07-11.79 4.82-1.68-.46-3.35-.89-5.02-1.28z" fill="#0584e3" fill-rule="evenodd"/><path d="m63.28 317.57-4.14-4.14c-1.28-1.28-3.34-1.28-4.62 0l-51.11 51.11c-.96.96-1.22 2.32-.71 3.57.51 1.22 1.67 2.01 3 2.01h12.93c-1.36 0-2.52-.79-3.03-2.01-.51-1.25-.26-2.61.71-3.57zm-31.46 52.55c1.81 0 3.26 1.45 3.26 3.26v134.65c0 2.18 1.79 3.97 3.97 3.97h12.9c-2.18 0-3.94-1.79-3.94-3.97v-134.65c0-1.81-1.47-3.26-3.29-3.26z" fill="#65c43a"/><path d="m461.6 317.57-4.14-4.14c-1.28-1.28-3.35-1.28-4.62 0l-51.11 51.11c-.96.96-1.22 2.32-.71 3.57.51 1.22 1.67 2.01 3 2.01h12.9c-1.33 0-2.49-.79-3-2.01-.51-1.25-.25-2.61.71-3.57zm-31.46 52.55c1.79 0 3.26 1.45 3.26 3.26v134.65c0 2.18 1.79 3.97 3.97 3.97h12.9c-2.18 0-3.97-1.79-3.97-3.97v-134.65c0-1.81-1.45-3.26-3.26-3.26z" fill="#65c43a"/><path clip-rule="evenodd" d="m256.01 0c2.86 0 5.7.14 8.5.4-47.03 4.28-83.85 43.82-83.85 91.96s36.82 87.68 83.85 91.98c-2.81.26-5.64.4-8.5.4-51.02 0-92.38-41.36-92.38-92.38 0-51 41.35-92.36 92.38-92.36z" fill="#e6bf00" fill-rule="evenodd"/></g></svg>