<svg id="Layer_1" viewBox="0 0 128 128" xmlns="http://www.w3.org/2000/svg" data-name="Layer 1"><g><circle cx="29.728" cy="97.469" fill="#fff" r="11.663"/><circle cx="29.728" cy="64.024" fill="#fff" r="11.663" transform="matrix(.23 -.973 .973 .23 -39.413 78.247)"/><circle cx="63.114" cy="97.778" fill="#fff" r="11.663" transform="matrix(.23 -.973 .973 .23 -46.548 136.739)"/><circle cx="63.114" cy="64.024" fill="#fff" r="11.663"/><ellipse cx="29.728" cy="30.222" fill="#fff" rx="11.647" ry="11.677" transform="matrix(.707 -.707 .707 .707 -12.664 29.896)"/><g fill="#fff"><circle cx="63.114" cy="30.531" r="11.663" transform="matrix(.234 -.972 .972 .234 18.642 84.732)"/><circle cx="63.114" cy="30.531" r="6.827"/></g><circle cx="98.272" cy="64.024" fill="#fff" r="11.663"/><circle cx="29.728" cy="97.469" fill="none" r="11.663" stroke="#02204c" stroke-linecap="round" stroke-linejoin="round" stroke-width="1.5"/><circle cx="29.728" cy="64.024" fill="none" r="11.663" stroke="#02204c" stroke-linecap="round" stroke-linejoin="round" stroke-width="1.5" transform="matrix(.23 -.973 .973 .23 -39.413 78.247)"/><circle cx="63.114" cy="97.778" fill="none" r="11.663" stroke="#02204c" stroke-linecap="round" stroke-linejoin="round" stroke-width="1.5" transform="matrix(.23 -.973 .973 .23 -46.548 136.739)"/><circle cx="63.114" cy="64.024" fill="none" r="11.663" stroke="#02204c" stroke-linecap="round" stroke-linejoin="round" stroke-width="1.5"/><ellipse cx="29.728" cy="30.222" fill="none" rx="11.647" ry="11.677" stroke="#02204c" stroke-linecap="round" stroke-linejoin="round" stroke-width="1.5" transform="matrix(.707 -.707 .707 .707 -12.664 29.896)"/><g><circle cx="63.114" cy="30.531" fill="none" r="11.663" stroke="#02204c" stroke-linecap="round" stroke-linejoin="round" stroke-width="1.5" transform="matrix(.234 -.972 .972 .234 18.642 84.732)"/><circle cx="63.114" cy="30.531" fill="#3680f4" r="6.827"/></g><circle cx="63.114" cy="64.024" fill="#acf" r="6.827"/><circle cx="98.272" cy="64.024" fill="none" r="6.827" stroke="#02204c" stroke-linecap="round" stroke-linejoin="round" stroke-width="1.5" transform="matrix(.465 -.885 .885 .465 -4.093 121.277)"/><circle cx="63.114" cy="97.517" fill="#3680f4" r="6.827"/><circle cx="29.728" cy="30.531" fill="#acf" r="6.827"/><circle cx="29.728" cy="64.024" fill="#3680f4" r="6.827"/><circle cx="29.728" cy="97.517" fill="#acf" r="6.827"/><g fill="none" stroke="#02204c" stroke-linecap="round" stroke-linejoin="round" stroke-width="1.5"><circle cx="98.272" cy="64.024" r="11.663"/><path d="m74.7770357 97.7774995h7.7432955c7.7208777 0 13.9798342-6.2589819 13.9798342-13.9798342v-8.2444623"/><path d="m74.7605356 29.9050531h7.7597957c7.7208777 0 13.9798342 6.2589817 13.9798342 13.9798339v8.6099875"/><path d="m55.644 88.761-16.739-16.739"/><path d="m38.47 89.68 16.884-16.884"/><path d="m55.644 55.038-16.969-16.97"/><path d="m38.47 55.957 16.778-16.646"/><path d="m51.451 97.777h-10.06"/><path d="m50.847 64.024h-9.456"/><path d="m85.997 64.024h-11.22"/></g></g><g fill="none" stroke="#02204c" stroke-linecap="round" stroke-linejoin="round" stroke-width="1.5"><path d="m72.568 37.358 17.286 18.599"/><path d="m89.854 72.091-18.35 17.589"/></g></svg>