<svg id="Layer_1" enable-background="new 0 0 512 512" viewBox="0 0 512 512" xmlns="http://www.w3.org/2000/svg"><path d="m139.41 203.12c4.76 3.27 10.53 4.48 16.24 3.42s10.65-4.27 13.92-9.04l16.62-24.22v91.5c0 4.25-.93 7.79-3.02 11.49l-17.14 30.31c-8.11 14.33-1.24 28.12 9.73 34.32 4.02 2.27 8.63 3.55 13.25 3.55 8 0 16.04-3.82 21.17-12.9 1.37-2.42 3.19-5.42 5.3-8.91 11.73-19.38 21.44-36.36 21.44-47.83v-58.22h39.86v46.74c0 13.99 11.38 25.36 25.36 25.36s25.36-11.38 25.36-25.36v-73.93c0-12.97-10.56-23.53-23.53-23.53h-31.85v-19.31c0-5.88 2.81-10.72 7.91-13.64l64.28-36.76c5.02-2.87 8.62-7.53 10.14-13.14 1.53-5.6.79-11.45-2.08-16.47s-7.53-8.62-13.14-10.14c-5.6-1.53-11.45-.79-16.47 2.08-3.06 1.75-7.58 4.46-12.8 7.6-14.63 8.78-36.74 22.06-48.03 26.78-14.38 6.02-38.24 5.71-55.51 2.74-10.8-1.86-21.35 2.6-27.55 11.63l-45.09 65.72c-6.76 9.86-4.24 23.39 5.63 30.16zm4.28-23.38 45.09-65.72c3.57-5.2 9.41-7.66 15.62-6.59 17.59 3.03 44.43 3.93 62.17-3.49 12.09-5.06 33.75-18.06 49.57-27.56 5.17-3.1 9.63-5.78 12.58-7.47 2.23-1.28 4.85-1.6 7.36-.92s4.6 2.29 5.87 4.52c1.28 2.23 1.6 4.85.92 7.36s-2.29 4.6-4.52 5.87l-64.28 36.76c-8.87 5.07-13.95 13.84-13.95 24.06v25.31c0 3.31 2.69 6 6 6h37.85c6.36 0 11.53 5.17 11.53 11.53v73.93c0 7.37-5.99 13.36-13.36 13.36s-13.36-6-13.36-13.36v-52.74c0-3.31-2.69-6-6-6h-51.86c-3.31 0-6 2.69-6 6v64.22c0 9.05-12.33 29.44-19.7 41.61-2.16 3.57-4.02 6.64-5.47 9.21-5.08 8.99-13.75 7.26-18.07 4.81-4.32-2.44-10.28-8.98-5.19-17.97l17.14-30.31c3.12-5.52 4.58-11.05 4.58-17.39v-107.04c0-3.16-2.03-5.91-5.05-6.85-.71-.22-1.43-.33-2.15-.33-2.32 0-4.53 1.13-5.9 3.12l-25.42 37.05c-1.46 2.12-3.67 3.55-6.22 4.03-2.56.48-5.13-.06-7.26-1.52-4.42-3.03-5.55-9.08-2.52-13.49zm89.43-85.26c21.91 0 39.74-17.83 39.74-39.74s-17.83-39.74-39.74-39.74-39.74 17.83-39.74 39.74 17.82 39.74 39.74 39.74zm0-67.48c15.3 0 27.74 12.44 27.74 27.74s-12.44 27.74-27.74 27.74-27.74-12.44-27.74-27.74 12.44-27.74 27.74-27.74zm215.93 244.42h-96.52c-3.31 0-6 2.69-6 6v30.6h-90.53c-3.31 0-6 2.69-6 6v34.05h-90.52c-3.31 0-6 2.69-6 6v29.31h-90.53c-3.31 0-6 2.69-6 6v101.62c0 3.31 2.69 6 6 6h96.52 96.53 96.52 96.52c3.31 0 6-2.69 6-6v-213.58c.01-3.32-2.68-6-5.99-6zm-380.1 123.96h84.52v89.62h-84.52zm96.53-35.31h84.52v124.93h-84.52zm96.52-40.05h84.52v164.98h-84.52zm181.05 164.98h-84.52v-201.58h84.52z" fill="rgb(255,255,255)"/></svg>