<svg id="Layer_1" enable-background="new 0 0 468 468" height="512" viewBox="0 0 468 468" width="512" xmlns="http://www.w3.org/2000/svg"><g><g><g><g><g><path d="m459.973 186.759s-.655-1.844-2.06-4.939c-30.041-66.15-117.469-81.015-168.134-28.951l-91.519 94.046c21.495 20.604 151.218 164.314 246.331 46.908 17.46-21.553 33.612-62.208 15.382-107.064zm-73.531 96.243c-44.182 26.8-100.78-14.031-131.985-49.374 36.91-75.884 99.324-69.382 99.324-69.382 64.744.453 88.102 85.127 32.661 118.756z" fill="#ffd629"/><path d="m416.135 245.795c-.255-.117-.514-.214-.773-.308-3.953 14.539-13.315 28.05-28.921 37.516-44.182 26.8-100.78-14.031-131.985-49.374 1.515-3.115 3.077-6.078 4.672-8.922-3.594-1.881-8.122-1.479-11.344 1.366-4.172 3.685-4.568 10.055-.884 14.228 27.946 31.651 69.164 61.421 108.29 61.421 12.541 0 24.873-3.061 36.477-10.1 13.181-7.995 23.357-19.22 29.428-32.462 2.321-5.062.101-11.045-4.96-13.365z" fill="#ffa910"/></g><g><path d="m459.973 186.759c-26.501-65.875-99.995-88.973-161.621-53.864-27.923 15.908-78.917 52.711-121.266 126.055l38.111 35.228c49.117-79.394 92.716-110.446 117.359-122.474 52.704-25.723 98.668 29.578 79.365 79.286l-9.083-4.333 10.526 55.268 52.669-25.981-8.107-6.054c9.726-22.346 14.963-51.351 2.047-83.131z" fill="#fc09b2"/><path d="m421.316 254.64c11.162-28.741 3.706-61.807-18.552-82.279-20.522-18.875-48.421-22.508-74.628-9.715-28.175 13.751-71.868 46.531-120.474 124.567l7.535 6.965c49.117-79.394 92.716-110.446 117.359-122.473 52.704-25.723 98.668 29.578 79.365 79.286l-9.083-4.333 10.526 55.269 9.379-4.627-7.04-36.966c2.575-1.042 4.607-3.102 5.613-5.694z" fill="#cc1dab"/></g><g><path d="m175.234 246.667 4.431 6.477s-48.071 63.698-98.454 29.859c-22.85-15.347-33.851-42.987-29.343-70.146 3.88-23.378 18.286-48.305 62.004-48.61 0 0 47.312 2.394 83.396 63.195l.584-.863c9.356-13.811 19.965-26.73 31.692-38.594-27.903-47.368-81.045-65.3-81.045-65.3-106.191-33.482-140.819 64.074-140.819 64.074-18.23 44.856-.297 84.182 15.382 107.064 46.395 67.703 132.757 60.254 185.459 6.079l6.926 5.773 11.638-53.533z" fill="#00d5fe"/><path d="m229.545 187.984c-27.903-47.368-81.045-65.3-81.045-65.3-106.192-33.481-140.82 64.075-140.82 64.075-18.23 44.856-.297 84.182 15.382 107.064 46.395 67.703 132.757 60.254 185.459 6.079l6.926 5.773 11.638-53.533-10.084-1.065-8.422 38.745c-.018 0-.036 0-.055 0-2.634 0-5.259 1.028-7.227 3.051-26.745 27.492-63.044 42.165-97.098 39.248-29.658-2.54-54.84-17.754-72.823-43.996-15.467-22.572-30.514-57.821-14.359-97.57.051-.125.107-.274.153-.401 1.298-3.602 32.888-87.844 128.166-57.898 2.194.773 50.41 18.21 75.524 60.845.489.83 1.084 1.557 1.749 2.19 2.271-2.474 4.574-4.918 6.936-7.307z" fill="#11a7e9"/></g><g><path d="m148.5 122.684c-106.192-33.481-140.82 64.075-140.82 64.075-12.916 31.78-7.679 60.785 2.048 83.132l-8.107 6.054 55.693 27.997 7.503-57.285-9.083 4.333c-4.611-11.873-6.035-25.059-3.864-38.135 3.88-23.378 18.286-48.305 62.004-48.61 0 0 47.312 2.394 83.396 63.195l1.493-2.214c9.028-13.384 19.338-25.857 30.783-37.243-27.904-47.367-81.046-65.299-81.046-65.299z" fill="#ffd629"/><path d="m229.545 187.984c-27.903-47.368-81.045-65.3-81.045-65.3-106.192-33.481-140.82 64.075-140.82 64.075-12.916 31.78-7.679 60.785 2.047 83.132l-8.107 6.054 55.693 27.997 1.386-10.585-39.551-19.883c.911-2.398.902-5.124-.179-7.607-11.172-25.668-11.829-51.007-1.951-75.312.051-.125.107-.274.153-.401 1.298-3.602 32.889-87.857 128.178-57.895 2.16.754 50.264 17.982 75.511 60.841.477.81 1.056 1.52 1.701 2.141 2.283-2.461 4.603-4.888 6.984-7.257z" fill="#ffa910"/></g></g><g fill="#a1e032"><g><path d="m78.264 230.059 21.878 11.27c1.494.769 3.272-.315 3.272-1.995 0-.849-.479-1.626-1.239-2.006l-19.822-9.937 19.822-9.937c.759-.381 1.239-1.157 1.239-2.006 0-1.68-1.778-2.765-3.272-1.995l-21.878 11.27c-2.17 1.116-2.17 4.219 0 5.336z"/><path d="m111.191 244.874c.944 0 1.79-.581 2.13-1.461l14.143-36.62c.584-1.512-.532-3.14-2.153-3.14-.955 0-1.811.588-2.154 1.479l-14.097 36.638c-.576 1.496.528 3.104 2.131 3.104z"/><path d="m131.908 215.442c0 .852.482 1.631 1.245 2.01l19.975 9.938-19.975 9.938c-.763.38-1.245 1.158-1.245 2.01 0 1.679 1.776 2.764 3.27 1.998l21.829-11.197c2.239-1.148 2.239-4.349 0-5.497l-21.829-11.197c-1.494-.767-3.27.318-3.27 1.997z"/></g><g><g><circle cx="329.376" cy="227.39" r="2.806"/><circle cx="342.704" cy="227.39" r="2.806"/><circle cx="356.031" cy="227.39" r="2.806"/></g><g><path d="m314.556 212.529c.3 3.097.596 6.195.889 9.269 0 1.912-.505 3.866-4.255 3.866h-.252v3.342h.252c2.863 0 4.255 1.265 4.257 3.842-.301 3.023-.598 6.047-.892 9.096 0 5.152 2.877 7.875 8.32 7.875h1.42v-3.564h-1.254c-2.827 0-4.144-1.458-4.145-4.565.271-2.709.533-5.481.781-8.257.05-3.182-1.185-5.287-3.579-6.131 2.425-.886 3.628-2.925 3.578-6.082-.24-2.704-.502-5.457-.778-8.158 0-3.179 1.239-4.534 4.144-4.534h1.254v-3.565h-1.42c-5.366-.001-8.321 2.677-8.32 7.566z"/><path d="m373.349 225.663c-3.75 0-4.255-1.954-4.256-3.842.293-3.098.59-6.195.891-9.317 0-4.864-2.975-7.542-8.376-7.542h-1.365v3.565h1.249c2.869.049 4.148 1.447 4.149 4.51-.26 2.726-.541 5.477-.836 8.204 0 3.137 1.208 5.173 3.591 6.06-1.758.635-3.591 2.234-3.59 6.154.3 2.75.581 5.519.833 8.209 0 3.08-1.336 4.538-4.2 4.589h-1.198v3.564h1.42c3.795 0 8.32-1.366 8.319-7.9-.294-3.024-.591-6.048-.889-9.046 0-2.602 1.392-3.867 4.255-3.867h.252v-3.342h-.249z"/></g></g></g></g><g><g><path d="m248.966 317.832h207.633v147.168h-207.633z" fill="#ff8cde"/></g><g fill="#fff"><g><path d="m286.696 465h-4.032"/><path d="m325.563 465h-4.032"/><path d="m361.504 465h-4.032"/><path d="m396.712 465h-4.032"/><path d="m427.519 465h-4.032"/><path d="m437.899 373.203c-.2-1.087-1.248-1.812-2.328-1.606-20.538 3.762-40.339 15.418-52.969 31.18-5.714 8.955-17.978 15.505-24.403 14.384-11.177-1.95-20.699-14.598-24.747-20.108-4.506-5.898-11.12-9.904-18.762-9.904-17.07 0-35.475 13.63-45.092 26.794-.652.892-.457 2.144.435 2.795.891.651 2.143.457 2.794-.436 2.315-3.169 5.75-6.778 9.835-10.253v58.951h4.032v-62.175c8.548-6.407 18.96-11.655 27.933-11.677 2.336-.003 4.636.393 6.903 1.19v72.662h4.032v-70.474c1.807 1.416 3.363 3.047 4.666 4.894 4.694 6.39 14.445 19.661 27.243 21.672v43.908h4.032v-43.688c11.496-1.437 18.337-7.263 24.22-16.034 2.115-2.64 4.452-5.15 6.957-7.529v67.251h4.032v-70.829c7.83-6.51 17.031-11.736 26.776-15.195v86.024h4.032v-87.341c2.895-.869 5.825-1.588 8.773-2.128 1.086-.199 1.806-1.241 1.606-2.328z"/></g><g><path d="m295.725 342.904h-21.124c-1.104 0-2-.896-2-2s.896-2 2-2h21.124c1.104 0 2 .896 2 2s-.896 2-2 2z"/><path d="m315.883 363.063h-41.283c-1.104 0-2-.896-2-2s.896-2 2-2h41.283c1.104 0 2 .896 2 2s-.895 2-2 2z"/></g></g></g><g><g><g><path d="m163.866 93.51c0-29.367-24.368-53.041-53.985-51.902-26.752 1.029-48.603 22.708-49.832 49.454-.702 15.279 5.203 29.182 15.098 39.108 5.111 5.127 8.128 11.97 8.128 19.209v6.898c0 15.827 12.829 28.657 28.655 28.657 15.826 0 28.655-12.83 28.655-28.657v-6.514c0-7.444 3.088-14.484 8.316-19.783 9.252-9.378 14.965-22.255 14.965-36.47z" fill="#915efd"/><path d="m94.362 156.277v-6.898c0-7.239-3.018-14.083-8.128-19.209-9.895-9.925-15.8-23.829-15.098-39.108 1.175-25.576 21.211-46.504 46.353-49.188-2.489-.265-5.027-.366-7.609-.267-26.752 1.029-48.603 22.708-49.832 49.454-.702 15.278 5.203 29.182 15.098 39.108 5.111 5.127 8.128 11.97 8.128 19.209v6.898c0 15.827 12.829 28.657 28.655 28.657 1.897 0 3.75-.189 5.544-.541-13.172-2.582-23.111-14.186-23.111-28.115z" fill="#6e4acf"/></g><g fill="#fff"><path d="m76.036 93.939 19.932 10.268c1.361.701 2.981-.287 2.981-1.818 0-.774-.437-1.481-1.128-1.828l-18.059-9.054 18.059-9.054c.692-.347 1.128-1.054 1.128-1.828 0-1.531-1.62-2.519-2.981-1.818l-19.932 10.268c-1.426.072-2.692 3.363 0 4.864z"/><path d="m106.035 107.436c.86 0 1.631-.529 1.941-1.331l12.885-33.363c.532-1.378-.485-2.86-1.961-2.86-.87 0-1.65.536-1.962 1.348l-12.844 33.379c-.526 1.362.48 2.827 1.941 2.827z"/><path d="m124.909 80.622c0 .776.439 1.486 1.134 1.831l18.198 9.054-18.198 9.054c-.695.346-1.134 1.055-1.134 1.831 0 1.53 1.618 2.518 2.979 1.82l19.887-10.201c2.891-1.845.939-4.527 0-5.008l-19.887-10.202c-1.361-.698-2.979.291-2.979 1.821z"/></g><g><path d="m83.274 149.378v6.898c0 15.827 12.829 28.657 28.655 28.657 15.826 0 28.655-12.83 28.655-28.657v-6.515c0-.84.045-1.673.122-2.501h-57.526c.057.703.094 1.408.094 2.118z" fill="#eee"/><path d="m94.362 156.277v-6.898c0-.71-.038-1.415-.095-2.117h-11.087c.057.702.095 1.407.095 2.117v6.898c0 15.827 12.829 28.657 28.655 28.657 1.897 0 3.75-.189 5.544-.541-13.173-2.583-23.112-14.187-23.112-28.116z" fill="#e0e0e0"/></g></g><g fill="#915efd"><path d="m111.929 19.079c-1.104 0-2-.896-2-2v-12.079c0-1.104.896-2 2-2s2 .896 2 2v12.079c0 1.105-.895 2-2 2z"/><path d="m38.274 91.147h-12.078c-1.104 0-2-.896-2-2s.896-2 2-2h12.078c1.104 0 2 .896 2 2s-.895 2-2 2z"/><path d="m197.663 91.147h-12.078c-1.104 0-2-.896-2-2s.896-2 2-2h12.078c1.104 0 2 .896 2 2s-.896 2-2 2z"/><path d="m58.627 38.813c-.512 0-1.024-.195-1.414-.586l-8.541-8.541c-.781-.781-.781-2.047 0-2.828.78-.781 2.048-.781 2.828 0l8.541 8.541c1.459 1.914.4 3.173-1.414 3.414z"/><path d="m165.231 38.852c-1.814-.241-2.544-1.414-1.414-3.414l8.541-8.541c.78-.781 2.047-.781 2.828 0s.781 2.047 0 2.828l-8.541 8.541c-.39.39-.902.586-1.414.586z"/></g></g></g><g><g fill="#00d5fe"><circle cx="408.495" cy="77.464" r="4.032"/><circle cx="408.495" cy="102.664" r="4.032"/><circle cx="408.495" cy="51.256" r="4.032"/><circle cx="408.495" cy="25.048" r="4.032"/></g><g fill="#00d5fe"><circle cx="431.678" cy="77.464" r="4.032"/><circle cx="431.678" cy="102.664" r="4.032"/><circle cx="431.678" cy="51.256" r="4.032"/><circle cx="431.678" cy="25.048" r="4.032"/></g><g fill="#915efd"><g><circle cx="187.677" cy="429.216" r="4.032"/><circle cx="187.677" cy="454.416" r="4.032"/><circle cx="187.677" cy="403.008" r="4.032"/></g><g><circle cx="210.859" cy="429.216" r="4.032"/><circle cx="210.859" cy="454.416" r="4.032"/><circle cx="210.859" cy="403.008" r="4.032"/></g><g><circle cx="187.677" cy="354.624" r="4.032"/><circle cx="187.677" cy="379.824" r="4.032"/></g><g><circle cx="210.859" cy="354.624" r="4.032"/><circle cx="210.859" cy="379.824" r="4.032"/></g></g><g><path d="m17.663 362.405 3.857 6.15c.821 1.309 2.749 1.246 3.482-.115l3.192-5.924c.201-.372.513-.672.893-.857l6.505-3.162c1.615-.785 1.475-3.132-.223-3.718l-6.055-2.093c-.519-.179-.942-.563-1.172-1.061l-3.077-6.673c-.699-1.516-2.832-1.574-3.613-.098l-3.715 7.023c-.235.445-.629.786-1.103.956l-5.56 1.989c-1.653.592-1.812 2.867-.258 3.683l6.073 3.187c.319.165.585.411.774.713z" fill="#cc1dab"/><path d="m231.751 128.853 3.857 6.15c.821 1.309 2.749 1.246 3.482-.115l3.192-5.924c.201-.372.513-.672.893-.857l6.505-3.162c1.615-.785 1.475-3.132-.223-3.718l-6.055-2.093c-.519-.179-.942-.563-1.172-1.061l-3.077-6.673c-.699-1.516-2.832-1.574-3.613-.098l-3.715 7.023c-.235.445-.629.786-1.103.956l-5.56 1.989c-1.653.592-1.813 2.867-.258 3.683l6.073 3.187c.319.164.585.411.774.713z" fill="#00d5fe"/></g></g><g><g><path d="m78.731 456.223c-3.648 0-7.139-1.892-8.819-5.133-1.861-3.589-5.609-6.046-9.92-6.046s-8.059 2.457-9.92 6.046c-1.681 3.241-5.172 5.133-8.819 5.133-7.482 0-12.474-7.958-8.983-14.583 5.252-9.963 15.707-16.769 27.722-16.769s22.47 6.806 27.722 16.769c3.492 6.625-1.5 14.583-8.983 14.583z" fill="#a1e032"/><path d="m114.902 370.524c-3.648 0-7.139 1.892-8.819 5.133-1.861 3.589-5.609 6.046-9.92 6.046s-8.059-2.457-9.92-6.046c-1.681-3.241-5.172-5.133-8.819-5.133-7.482 0-12.474 7.958-8.983 14.583 5.252 9.963 15.707 16.769 27.722 16.769s22.47-6.806 27.722-16.769c3.491-6.625-1.501-14.583-8.983-14.583z" fill="#ff8cde"/></g><g><path d="m276.555 78.707c-3.648 0-7.139-1.892-8.819-5.133-1.861-3.589-5.609-6.046-9.92-6.046s-8.059 2.457-9.92 6.046c-1.681 3.241-5.172 5.133-8.819 5.133-7.482 0-12.475-7.958-8.983-14.583 5.252-9.963 15.707-16.769 27.722-16.769 12.014 0 22.47 6.806 27.722 16.769 3.491 6.625-1.501 14.583-8.983 14.583z" fill="#a1e032"/><path d="m361.443 27.032c-3.648 0-7.139 1.892-8.819 5.133-1.861 3.589-5.609 6.046-9.92 6.046s-8.059-2.457-9.92-6.046c-1.681-3.241-5.172-5.133-8.819-5.133-7.482 0-12.474 7.958-8.983 14.583 5.252 9.963 15.707 16.769 27.722 16.769 12.014 0 22.47-6.806 27.722-16.769 3.491-6.624-1.501-14.583-8.983-14.583z" fill="#ff8cde"/></g></g></g></svg>