<svg id="Layer_1" viewBox="0 0 512 512" xmlns="http://www.w3.org/2000/svg" data-name="Layer 1"><g fill-rule="evenodd"><path d="m259.62 318.8-60.477 40.66a6.722 6.722 0 0 1 -3.79 1.16 6.8 6.8 0 0 1 -3.8-12.446l61.347-41.243v-65.163a6.8 6.8 0 0 1 13.6 0v65.247l56.65 39.757a6.8 6.8 0 0 1 -7.824 11.136zm138.38-17.018a32.088 32.088 0 1 1 -32.084 32.089 32.129 32.129 0 0 1 32.084-32.089zm0 77.778a45.69 45.69 0 1 0 -45.688-45.689 45.746 45.746 0 0 0 45.688 45.689zm69.756 84.784c-16.576 12.621-39.965 18.673-69.6 18-.049 0-.1 0-.156 0s-.1 0-.156 0c-29.625.674-53.013-5.38-69.6-18-2.7-26.563.845-44.79 10.551-54.2 10.982-8.924 23.048-13.085 36.778-12.68 5.257 5.931 13.389 9.385 22.426 9.385s17.169-3.453 22.426-9.385c13.74-.4 25.8 3.758 36.787 12.68 9.708 9.409 13.253 27.637 10.543 54.2zm-1.34-64.225q-.191-.174-.381-.335a67.929 67.929 0 0 0 -49.6-15.727 6.808 6.808 0 0 0 -5.2 3.084c-2.428 3.765-7.5 6.1-13.234 6.1s-10.795-2.339-13.234-6.1a6.811 6.811 0 0 0 -5.2-3.084c-18.46-1.4-35.135 3.9-49.593 15.727a4.243 4.243 0 0 0 -.379.336c-13.378 12.729-18.209 34.559-14.759 66.727a11.036 11.036 0 0 0 4.178 7.555c19.142 15.031 45.716 22.285 78.986 21.547 1.537.032 3.051.05 4.557.05 31.142 0 56.171-7.257 74.429-21.6a11.01 11.01 0 0 0 4.188-7.552c3.451-32.173-1.38-54-14.758-66.731zm-352.416-98.337a32.088 32.088 0 1 1 -32.1 32.089 32.126 32.126 0 0 1 32.1-32.089zm0 77.778a45.69 45.69 0 1 0 -45.7-45.689 45.743 45.743 0 0 0 45.7 45.689zm69.745 84.784c-16.576 12.621-39.965 18.673-69.591 18-.058 0-.107 0-.156 0s-.107 0-.155 0c-29.635.674-53.024-5.38-69.6-18-2.71-26.563.835-44.79 10.542-54.2 10.991-8.924 23.038-13.085 36.787-12.68 5.257 5.931 13.38 9.385 22.426 9.385s17.16-3.453 22.426-9.385c13.732-.4 25.8 3.757 36.778 12.68 9.708 9.409 13.253 27.638 10.543 54.2zm-1.34-64.225c-.118-.116-.254-.228-.381-.335a67.929 67.929 0 0 0 -49.6-15.727 6.8 6.8 0 0 0 -5.188 3.084c-2.438 3.765-7.512 6.1-13.235 6.1s-10.8-2.339-13.243-6.1a6.774 6.774 0 0 0 -5.189-3.084c-18.461-1.4-35.145 3.9-49.6 15.727-.126.106-.253.219-.379.336-13.38 12.729-18.209 34.559-14.76 66.727a11.014 11.014 0 0 0 4.18 7.553c19.142 15.033 45.717 22.287 78.99 21.549q2.292.048 4.548.05c31.153 0 56.171-7.257 74.438-21.6a11.033 11.033 0 0 0 4.179-7.552c3.451-32.171-1.38-54-14.758-66.731zm76.555-370.519a32.088 32.088 0 1 1 -32.086 32.089 32.121 32.121 0 0 1 32.086-32.089zm0 77.779a45.691 45.691 0 1 0 -45.689-45.69 45.737 45.737 0 0 0 45.689 45.69zm-59.214 30.581c10.99-8.922 23.067-13.086 36.786-12.678 5.258 5.931 13.38 9.384 22.427 9.384s17.168-3.451 22.425-9.384c13.73-.4 25.8 3.758 36.787 12.68 9.7 9.41 13.244 27.639 10.543 54.2-16.584 12.62-39.994 18.671-69.6 18-.106 0-.2 0-.311 0-29.606.666-53.014-5.38-69.6-18-2.7-26.56.835-44.789 10.543-54.2zm-19.772 64.258c18.257 14.342 43.286 21.6 74.437 21.6q2.245 0 4.548-.051c33.269.736 59.844-6.514 78.986-21.547a11 11 0 0 0 4.178-7.552c3.45-32.173-1.37-54-14.76-66.729a4.287 4.287 0 0 0 -.379-.337c-14.456-11.831-31.142-17.121-49.593-15.727a6.814 6.814 0 0 0 -5.2 3.085c-2.438 3.765-7.511 6.1-13.233 6.1s-10.8-2.34-13.235-6.1a6.809 6.809 0 0 0 -5.2-3.085c-18.46-1.4-35.145 3.9-49.594 15.727-.134.108-.262.22-.388.337-13.379 12.729-18.209 34.558-14.76 66.727a11.01 11.01 0 0 0 4.193 7.555z" fill="#57a4ff"/><g fill="#9bc9ff"><path d="m398 365.958a32.088 32.088 0 1 0 -32.084-32.087 32.129 32.129 0 0 0 32.084 32.087z"/><path d="m114 365.958a32.088 32.088 0 1 0 -32.1-32.087 32.126 32.126 0 0 0 32.1 32.087z"/><path d="m226.874 61.692a32.085 32.085 0 1 0 32.086-32.092 32.122 32.122 0 0 0 -32.086 32.092z"/></g></g></svg>