<svg id="Layer_1" viewBox="0 0 512 512" xmlns="http://www.w3.org/2000/svg" data-name="Layer 1"><g fill="#94c1ff"><path d="m428.285 159.451c1.126 1.125 1.758 2.651 1.758 4.243v6.797l18.97-18.97-18.97-18.969v6.796c0 3.313-2.687 6-6 6h-36.319v12.346h36.319c1.591 0 3.117.632 4.242 1.757z"/><path d="m309.803 43.454v36.32h12.346s0-36.319 0-36.319c0-3.313 2.687-6 6-6h6.796l-18.969-18.969-18.97 18.969h6.797c3.313 0 6 2.687 6 6z"/><path d="m203.667 143.591c-1.126-1.125-1.758-2.651-1.758-4.243v-6.797l-18.97 18.969 18.97 18.97v-6.797c0-3.313 2.687-6 6-6h36.319v-12.346s-36.319 0-36.319 0c-1.591 0-3.117-.632-4.242-1.757z"/><path d="m108.17 357.971h37.427v143.296h-37.427z" transform="matrix(.707 -.707 .707 .707 -266.623 215.551)"/><path d="m234.806 282.862h162.339v-34.733c-1.142-29.407-31.251-44.594-59.702-49.167-6.551 2.977-13.816 4.649-21.468 4.649s-14.917-1.672-21.468-4.649c-28.45 4.574-58.558 19.76-59.701 49.168v34.733z"/></g><path d="m210.205 112.524c-2.241-.928-4.823-.416-6.538 1.301l-33.455 33.454c-1.126 1.125-1.758 2.651-1.758 4.243s.632 3.117 1.758 4.243l33.455 33.455c1.147 1.148 2.682 1.757 4.243 1.757.773 0 1.553-.149 2.295-.457 2.242-.929 3.704-3.117 3.704-5.543v-15.282h36.319c3.313 0 6-2.686 6-6v-24.345c0-1.592-.631-3.118-1.757-4.243-1.125-1.125-2.651-1.757-4.242-1.757h-36.32s0-15.281 0-15.281c0-2.427-1.462-4.615-3.704-5.543zm34.024 32.825v12.346h-36.32c-3.313 0-6 2.687-6 6v6.797l-18.97-18.97 18.97-18.969v6.797c0 1.591.632 3.117 1.758 4.243 1.125 1.125 2.651 1.757 4.242 1.757h36.32z" fill="#116fff"/><path d="m421.747 190.52c.742.307 1.521.457 2.295.457 1.562 0 3.096-.609 4.243-1.757l33.455-33.455c1.126-1.125 1.758-2.651 1.758-4.243s-.632-3.118-1.758-4.243l-33.455-33.454c-1.716-1.717-4.299-2.229-6.538-1.301-2.242.929-3.704 3.117-3.704 5.543v15.281h-36.319c-3.313 0-6 2.687-6 6v24.346c0 1.591.632 3.117 1.758 4.243 1.125 1.125 2.651 1.757 4.242 1.757h36.319s0 15.282 0 15.282c0 2.427 1.462 4.615 3.704 5.543zm-34.023-32.825v-12.346h36.319c3.313 0 6-2.687 6-6v-6.796l18.97 18.969-18.97 18.97v-6.797c0-1.591-.632-3.117-1.758-4.243-1.125-1.125-2.651-1.757-4.242-1.757z" fill="#116fff"/><path d="m396.579 406.577 62.543-86.239c8.172-11.267 3.84-24.225-4.662-31.202-8.121-6.665-21.308-9.035-31.067 1.506l-46.603 50.339c-2.587-13.794-14.721-24.264-29.254-24.264h-79.881l-8.874-5.123c-10.321-5.96-20.682-8.736-32.604-8.736h-33.469c-17.615 0-33.111 6.409-46.057 19.049l-42.526 41.52-10.431-10.431c-2.341-2.342-6.142-2.343-8.484 0l-34.95 34.95c-1.126 1.125-1.758 2.651-1.758 4.243s.632 3.117 1.758 4.243l109.811 109.811c1.171 1.171 2.706 1.757 4.242 1.757s3.071-.586 4.242-1.757l34.95-34.95c1.126-1.125 1.758-2.651 1.758-4.243s-.632-3.117-1.758-4.243l-10.664-10.663 5.757-6.613c5.521-6.342 12.583-9.557 20.991-9.557h120.998c22.357 0 42.242-10.44 55.99-29.396zm-232.266 86.937-101.325-101.326 26.465-26.464 101.325 101.326zm25.235-55.863-5.212 5.987-71.725-71.725 42.423-41.42c10.775-10.521 23.099-15.635 37.674-15.635h33.469c9.861 0 18.066 2.198 26.604 7.128l10.267 5.927c.912.526 1.947.804 3 .804h81.488c9.795 0 17.764 7.969 17.764 17.765 0 4.349-1.611 8.544-4.536 11.812 0 0 0 .001-.001.002-3.385 3.781-8.205 5.95-13.226 5.95h-69.475c-3.313 0-6 2.687-6 6s2.687 6 6 6h69.475c8.39 0 16.432-3.594 22.085-9.86.005-.005.011-.009.016-.014l62.562-67.577c4.815-5.203 10.9-3.457 14.649-.382 3.86 3.168 6.848 8.967 2.559 14.88l-62.543 86.239c-11.596 15.99-27.598 24.441-46.275 24.441h-120.998c-11.863 0-22.252 4.73-30.042 13.678z" fill="#116fff"/><path d="m303.803 91.774h24.346c1.591 0 3.117-.632 4.242-1.757 1.126-1.125 1.758-2.651 1.758-4.243v-36.32h15.281c2.427 0 4.614-1.462 5.543-3.704s.416-4.822-1.301-6.539l-33.454-33.455c-2.341-2.342-6.142-2.344-8.484 0l-33.455 33.454c-1.717 1.716-2.229 4.297-1.301 6.539.929 2.242 3.116 3.704 5.543 3.704h15.282v36.32c0 3.313 2.687 6 6 6zm-6.797-54.32 18.97-18.969 18.969 18.969h-6.796c-3.313 0-6 2.687-6 6v36.32h-12.346v-36.32c0-3.313-2.687-6-6-6z" fill="#116fff"/><path d="m222.81 247.798c-.003.073-.004.146-.004.219v40.846c0 3.313 2.687 6 6 6h174.339c3.313 0 6-2.687 6-6v-40.846c0-.073 0-.146-.004-.219-1.012-27.774-22.74-49.283-57.684-58.19 10.208-9.516 16.607-23.065 16.607-38.087 0-28.722-23.367-52.089-52.09-52.089s-52.089 23.367-52.089 52.089c0 15.022 6.4 28.571 16.607 38.087-34.943 8.907-56.67 30.416-57.684 58.19zm53.076-96.277c0-22.105 17.983-40.089 40.089-40.089s40.09 17.984 40.09 40.089-17.984 40.089-40.09 40.089-40.089-17.984-40.089-40.089zm18.621 47.441c6.551 2.977 13.816 4.649 21.468 4.649s14.917-1.672 21.468-4.649c28.45 4.574 58.56 19.76 59.702 49.167v34.733h-162.339v-34.733c1.143-29.408 31.251-44.594 59.701-49.168z" fill="#116fff"/></svg>